<?xml version="1.0" standalone="no"?>
<!DOCTYPE svg PUBLIC "-//W3C//DTD SVG 1.1//EN" "http://www.w3.org/Graphics/SVG/1.1/DTD/svg11.dtd" >
<!--
2013-9-30: Created.
-->
<svg>
<metadata>
Created by iconfont
</metadata>
<defs>

<font id="iconfont" horiz-adv-x="1024" >
  <font-face
    font-family="iconfont"
    font-weight="500"
    font-stretch="normal"
    units-per-em="1024"
    ascent="896"
    descent="-128"
  />
    <missing-glyph />
    
    <glyph glyph-name="x" unicode="x" horiz-adv-x="1001"
d="M281 543q-27 -1 -53 -1h-83q-18 0 -36.5 -6t-32.5 -18.5t-23 -32t-9 -45.5v-76h912v41q0 16 -0.5 30t-0.5 18q0 13 -5 29t-17 29.5t-31.5 22.5t-49.5 9h-133v-97h-438v97zM955 310v-52q0 -23 0.5 -52t0.5 -58t-10.5 -47.5t-26 -30t-33 -16t-31.5 -4.5q-14 -1 -29.5 -0.5
t-29.5 0.5h-32l-45 128h-439l-44 -128h-29h-34q-20 0 -45 1q-25 0 -41 9.5t-25.5 23t-13.5 29.5t-4 30v167h911zM163 247q-12 0 -21 -8.5t-9 -21.5t9 -21.5t21 -8.5q13 0 22 8.5t9 21.5t-9 21.5t-22 8.5zM316 123q-8 -26 -14 -48q-5 -19 -10.5 -37t-7.5 -25t-3 -15t1 -14.5
t9.5 -10.5t21.5 -4h37h67h81h80h64h36q23 0 34 12t2 38q-5 13 -9.5 30.5t-9.5 34.5q-5 19 -11 39h-368zM336 498v228q0 11 2.5 23t10 21.5t20.5 15.5t34 6h188q31 0 51.5 -14.5t20.5 -52.5v-227h-327z" />
    

    
    <glyph glyph-name="mima" unicode="&#58931;" d="M521.939373 256.493114c-41.249473 0-74.679863-33.429367-74.679863-74.679863 0-29.720905 17.511839-55.17974 42.674938-67.188238l0-82.138742c0-17.659195 14.34573-32.005948 32.004925-32.005948 17.659195 0 32.005948 14.346753 32.005948 32.005948l0 82.140789c25.162076 12.009522 42.674938 37.46631 42.674938 67.187215C596.620259 223.063747 563.188846 256.493114 521.939373 256.493114zM831.296093 405.822141l-640.016629 0c-35.352159 0-64.011896-28.626991-64.011896-63.980173l0-426.676729c0-35.352159 28.659737-64.011896 64.011896-64.011896l640.016629 0c35.31839 0 63.978127 28.659737 63.978127 64.011896L895.27422 341.841967C895.275243 377.194126 866.615507 405.822141 831.296093 405.822141zM831.296093-42.160847c0-35.352159-7.321756-42.674938-42.674938-42.674938L233.919611-84.835785c-35.351136 0-42.640146 7.321756-42.640146 42.674938L191.279465 299.167029c0 35.352159 7.28901 42.674938 42.640146 42.674938l554.701544 0c35.352159 0 42.674938-7.321756 42.674938-42.674938L831.296093-42.160847zM208.867028 438.024563c17.768689 0 32.218796 14.161534 32.705889 31.812543l0.067538-0.004093c28.92375 122.258485 138.525983 213.338876 269.63095 213.338876 102.480023 0 191.682647-55.771211 239.628636-138.475841 4.988618-11.293207 16.279778-19.177781 29.41903-19.177781 17.758456 0 32.154327 14.395872 32.154327 32.154327 0 6.928806-2.199085 13.33982-5.925966 18.58938-58.985416 102.048187-168.918177 170.922834-295.276027 170.922834-165.111478 0-302.614156-113.305579-334.272179-268.980127-0.149403-0.641613-0.280386-1.289366-0.391926-1.945305-0.153496-0.778736-0.321318-1.551332-0.469698-2.332115l0.154519-0.00921c-0.100284-1.040702-0.154519-2.094708-0.154519-3.162016C176.136579 452.678308 190.790324 438.024563 208.867028 438.024563z"  horiz-adv-x="1024" />

    
    <glyph glyph-name="user" unicode="&#58906;" d="M910.613-115.233c0-19.942-16.192-36.168-36.134-36.168-20.007 0-36.23 16.225-36.23 36.168l-0.314 3.376c0 1.407 0.281 2.782 0.438 4.253-22.631 158.734-158.766 275.487-324.597 277.332-1.344-0.064-2.563-0.219-3.907-0.219-1.344 0-2.562 0.155-3.907 0.219-163.893-1.845-298.778-115.972-323.629-272.050 0.845-3.032 1.407-6.189 1.407-9.534l0.343-3.376c0-20.317-16.441-36.792-36.73-36.792-20.255 0-36.761 16.475-36.761 36.792l-0.031 0.344h-0.688c0.094 1.062 0.312 2.064 0.438 3.096 0 3.063 0.469 5.939 1.155 8.752 18.849 146.418 116.942 264.765 250.481 315.782-77.742 49.827-128.475 137.822-128.475 238.352 0 155.546 120.88 281.647 276.395 281.647 155.546 0 276.426-126.101 276.426-281.647 0-100.53-50.671-188.464-128.382-238.29 132.602-50.639 230.287-167.612 250.169-312.593 1.344-3.75 2.22-7.814 2.22-12.067l0.313-3.376zM722.682 451.030c0 117.598-95.31 212.94-212.875 212.94-117.598 0-212.908-95.342-212.908-212.94 0-117.566 95.31-212.875 212.908-212.875 117.566-0.001 212.875 95.309 212.875 212.875v0zM722.682 451.030z"  horiz-adv-x="1024" />

    
    <glyph glyph-name="tel2" unicode="&#58989;" d="M519.23694307-23.148553119999974c-107.39078877 0-214.79327051-0.00539648-322.17146807-1e-8-34.97728535 0-57.81819902 22.80313916-57.84338232 57.69228428-0.01259121 25.72076162-0.29499961 46.67745234-0.29499961 77.14249717-2.26646367 38.28524239 6.95228643 73.73740605 21.88036494 108.39001113 29.56205654 68.62976894 68.11082051 132.22834893 107.96639853 195.12810352 5.44131123 8.57748428 10.95996885 17.11719492 16.69538057 25.49051719 11.17672208 16.2852583 26.65612705 24.63969463 46.53984638 24.70265156 7.85977119 0.02608242 18.24323115-2.51559404 22.84001456 1.45971035 4.77666123 4.1479875 1.30591494 14.84443565 1.44711914 22.67362705 0.19156992 12.15705761 0.03777451 24.3060205 0.03777451 36.46307812 0 23.21775879 10.24225576 37.48028818 32.49406934 44.51621836 18.60298682 5.89550273 36.84621797 4.81443575 54.07943378-4.68582275 14.44150898-7.95060967 22.55850528-19.76769756 22.09711817-37.0512791-0.48657041-18.35295645 0.12861299-36.73109619-0.23114356-55.10383945-0.14030508-6.17791114 0.89579268-8.60986231 8.00097539-8.50103614 31.09821504 0.45419238 62.17124766 0.4478959 93.26856358 0.00629561 6.8101831-0.10253057 7.66820127 2.22149356 7.55307861 8.09810947-0.3570583 17.5147251-0.15379541 35.04114229-0.11512178 52.56216299 0.03777451 23.80685888 10.16490849 37.6655625 33.17220967 44.80312325 20.24257588 6.2867373 39.71437383 4.35304863 57.60054668-7.3615087 11.82877998-7.75813974 18.21894786-18.69202705 17.91045704-33.43483125-0.40922227-19.48618828 0.03867364-38.99755987-0.23024356-58.50263496-0.08993935-4.78835333 1.26724043-6.33170742 6.08257617-6.04300254 6.75981651 0.40382578 13.55650839 0.10253057 20.3424082 0.06385693 17.80972471-0.08274375 32.9032916-6.77240859 43.18512012-21.18873427 50.16079072-70.41595781 96.43171904-143.13525469 128.28542256-224.03090742 12.94492325-32.80705664 20.70306299-66.6115374 19.4987795-102.33261826 1.35807891-27.55911533-0.15379541-55.94836729-0.15379542-83.92749698-0.01259121-33.66057832-23.26182891-57.0060501-56.90711689-57.01774219C734.58064003-23.161144339999964 626.90924112-23.148553119999974 519.23694307-23.148553119999974zM330.70137031 772.36388935C245.47245576 753.14661826 174.16070528 709.9111324200001 113.50043281 648.00970107c-19.72992305-20.13284971-29.10066943-44.52161396-28.6140999-72.81013447 0.3075917-17.2386123 0.05126484-34.48441933 0.07644815-51.72303164 0.0251833-35.45126367 22.71230068-58.08621797 58.31736064-58.13838194 32.78816982-0.04496924 65.57633964 0.05756133 98.36450859-0.0062956 37.85803242-0.08364287 60.23755898 21.89295615 60.45521133 59.59089756 0.14030508 24.00562441 6.4783081 46.17379424 19.0886581 66.62592773 22.07283487 35.84159912 53.56768096 59.75098857 92.93668858 73.75089727 42.08336719 14.96675214 85.71548497 16.33022842 129.65519355 14.57641758 35.27138584-1.40214902 69.89071377-7.04762138 101.47370098-23.41652344 56.57614102-29.32461826 92.42583487-72.85420459 92.89801494-139.97389746 0.20596026-27.961142 25.35111211-51.0385957 54.13159864-51.12853506 35.3361419-0.09623496 70.65879346-0.06385693 105.98234414 0.0251833 32.34027305 0.08364287 54.82233018 22.44338349 55.09124823 54.81603457 0.15379541 17.80882558-0.3075917 35.63024239 0.128613 53.42018115 0.74199727 30.22760566-9.61448115 55.86562354-30.95701084 77.02197891C865.3492795 707.32628497 799.5301042 749.15872266 720.67696719 769.10539893c-66.20321425 16.7529419-133.5981208 21.77153877-201.56773711 22.04675244C455.69592441 790.93449815 392.78267949 786.35750156 330.70137031 772.36388935zM521.77142481 356.79614385c-91.43830459 0.64666143-165.01651875-71.67690263-165.39875948-162.57737286-0.37144776-88.92900615 72.5789918-162.57287549 161.55926279-163.07113799 90.0811248-0.53064053 163.59548203 72.12479942 164.09464365 162.19962862C682.52393516 282.07120752000003 609.88108643 356.17466573 521.77142481 356.79614385zM410.64276992 193.85361884999998c-0.10253057-59.52793974 48.79191885-108.46646016 108.28658145-108.43408213 60.63419004 0.02608242 108.81092636 48.5436876 108.79923428 109.57450869 0 58.8803792-49.03565362 107.59495078-108.22272539 107.52479824C459.16577158 302.44059727 410.73270928 254.10376992 410.64276992 193.85361884999998z"  horiz-adv-x="1024" />

    
    <glyph glyph-name="arrow-r" unicode="&#59048;" d="M267.909 800.395l28.713 28.721c7.928 7.928 20.785 7.928 28.721 0l430.755-430.755c7.928-7.936 7.928-20.794 0-28.721l-28.721-28.713c-7.928-7.936-20.785-7.936-28.713 0l-430.755 430.755c-7.936 7.928-7.936 20.785 0 28.713zM267.909-3.673l430.755 430.746c7.928 7.936 20.785 7.936 28.713 0l28.721-28.713c7.928-7.936 7.928-20.794 0-28.721l-430.756-430.754c-7.936-7.928-20.794-7.928-28.721 0l-28.713 28.721c-7.935 7.927-7.935 20.784 0.001 28.72z"  horiz-adv-x="1024" />

    
    <glyph glyph-name="car" unicode="&#58886;" d="M1005.43988622 554.81023375l-39.24955022-2e-8c-2.90724523 0-7.26869447-1.45420402-10.17593856-2.90724523l0 0-45.06520462-29.07361165 0 0 0 0-69.77736704 157.00053106c-13.08318379 30.52781682-42.15795938 50.87969394-75.59302031 52.33389796l-188.9813868 11.63014371c-21.80608226 1.45420402-42.15795938 1.45420402-63.96287772 1.45420402-21.80608226 0-42.15795938 0-63.96287773-1.45420402l-188.98138681-11.63014371c-33.43506091-1.45420402-62.5098365-21.80608226-75.5930203-52.33389796l-69.77736704-157.00053106 0 0 0 0-45.06520462 29.07361167c-2.90724523 1.45420402-5.81448931 2.90724523-10.17593856 2.90724523L19.82803171 554.81023375c-10.17593856 0-17.44463303-7.26869447-17.44463302-17.44463304l0-7.26869447c0-5.81448931 2.90724523-10.17593856 5.81448931-13.08318378l42.15795939-34.88926608c2.90724523-1.45420402 4.36144926-2.90724523 7.26869449-4.36144923 1.45420402 0 1.45420402 0 2.90724522 0s4.36144926 0 5.81448931 0l0 0 30.52781683 8.72173454 0 0 0 0-4.36144926-18.8976731c0-1.45420402-1.45420402-2.90724523-2.90724523-2.90724523l-53.78693802-69.77736704c-2.90724523-2.90724523-5.81448931-7.26869447-7.26869447-11.63014371-5.81448931-11.63014369-8.72173454-24.71332637-7.26869447-39.24955023l30.52781682-312.54685694c0-4.36144926 4.36144926-8.72173454 8.72173455-8.72173456l85.76895885 0c4.36144926 0 8.72173454 4.36144926 8.72173454 8.72173453L155.02131541 88.17125603c0 10.17593856 8.72173454 18.89883706 18.89767311 17.44463304l0 0 0 0 215.14891832-10.17593856c20.35187711-1.45420402 40.70375538-1.45420402 61.0556325-2.90724523 40.70375538-1.45420402 82.86171477-1.45420402 123.56547015 0 20.35187711 0 40.70375538 1.45420402 61.0556325 2.90724523l215.14891834 10.17593856 0 0 0 0c10.17593856 0 18.89883706-7.26869447 18.89883704-17.44463304l0-56.69418325c0-4.36144926 4.36144926-8.72173454 8.72173454-8.72173454l85.76895886 0c4.36144926 0 8.72173454 2.90724523 8.72173454 8.72173454l30.52781682 312.54685695c1.45420402 13.08318379-1.45420402 27.62057159-7.26869447 39.24955024-1.45420402 4.36144926-4.36144926 7.26869447-7.26869447 11.63014371l-53.78693802 69.77736704c-1.45420402 1.45420402-1.45420402 2.90724523-2.90724523 2.90724523l-4.36144924 18.89767311 0 0 0 0 30.52781681-8.72173455 0 0c1.45420402 0 4.36144926 0 5.81448933 0s1.45420402 0 2.90724522 0c2.90724523 0 5.81448931 1.45420402 7.26869447 4.36144924l42.15795939 34.88926607c4.36144926 2.90724523 5.81448931 8.72173454 5.81448931 13.08318379l0 7.26869446C1022.88451925 547.54270435 1015.61582478 554.81023375 1005.43988622 554.81023375zM220.4395611 256.80076574c-34.88926607 0-63.96287773 29.07361166-63.96287772 63.96287771 0 34.88926607 29.07361166 63.96287773 63.96287772 63.96287772s63.96287773-29.07361166 63.96287773-63.96287772C284.40243883 285.87554133000003 255.32766322 256.80076574 220.4395611 256.80076574zM514.08758101 501.02329572L181.18884694 501.02329572c-13.08318379 0-21.80608226 14.53738781-15.99042788 26.16636758l75.5930203 149.73183657c2.90724523 5.81448931 8.72173454 8.72173454 14.5373878 10.17593856l186.07414273 10.17593856c47.97244871 2.90724523 95.94489856 2.90724523 145.37038734 0l184.62110264-10.17593856c5.81448931 0 11.63014369-4.36144926 14.53738781-10.17593856l77.04606037-149.73183657c5.81448931-11.63014369-2.90724523-26.16636757-15.99042786-26.16636758L514.08758101 501.02329572zM807.73676487 256.80076574c-34.88926607 0-63.96287773 29.07361166-63.96287773 63.96287771 0 34.88926607 29.07361166 63.96287773 63.96287773 63.96287772 34.88926607 0 63.96287773-29.07361166 63.96287772-63.96287772C871.69964259 285.87554133000003 842.62486585 256.80076574 807.73676487 256.80076574z"  horiz-adv-x="1024" />

    
    <glyph glyph-name="back" unicode="&#58900;" d="M1159.876923 134.931692c-54.587077 58.289231-122.643692 104.526769-202.279385 137.531077-97.595077 40.487385-212.992 61.046154-342.882461 61.046154a45.922462 45.922462 0 0 1-45.843692-45.843692v-173.292308l-428.347077 310.350769 428.347077 312.004923v-186.998153c0-12.366769 5.12-24.418462 14.020923-33.004308 9.058462-8.664615 22.921846-12.996923 33.319384-12.760616l7.089231 0.07877c43.401846 0 267.972923-7.798154 419.052308-161.476923 54.902154-55.768615 94.286769-125.400615 117.681231-207.793231l-0.157539 0.157538m-52.145231 272.068923c-75.224615 76.406154-172.898462 130.914462-290.264615 162.028308a809.038769 809.038769 0 0 1-156.908308 25.442462V826.840615a45.607385 45.607385 0 0 1-25.127384 40.723693 45.134769 45.134769 0 0 1-47.734154-3.780923L35.524923 461.745231a45.922462 45.922462 0 0 1 0.157539-74.121846l552.172307-400.147693a45.686154 45.686154 0 0 1 72.782769 37.021539V240.79753800000003c185.659077-8.034462 334.217846-65.378462 430.08-166.203076 76.091077-80.108308 94.759385-161.161846 95.468308-164.233847a45.843692 45.843692 0 0 1 44.898462-36.78523l4.096 0.157538a45.843692 45.843692 0 0 1 41.747692 44.898462c3.387077 206.375385-53.484308 370.530462-169.196308 488.36923"  horiz-adv-x="1339" />

    
    <glyph glyph-name="car2" unicode="&#58943;" d="M1003.6073813333334 374.2558890666671c-9.454660266666668 32.068949333333336-15.856799288888888 55.84832284444444-25.678461155555556 71.92066275555555-11.260541155555556 18.419985066666666-86.83956906666667 15.087843555555553-139.94411804444445 23.44149902222222-35.38944 31.77767822222222-93.36986737777778 92.82810311111109-105.07314062222221 98.58944568888889-20.406454044444445 10.043027911111109-228.18178844444444 17.03353457777778-300.56848497777776-6.407964444444444-30.245592177777777-9.792534755555554-129.83118506666668-83.01226666666666-129.83118506666668-83.01226666666666s-265.4644906666667-39.26334577777778-271.91323306666663-82.76177351111112c-3.8739057777777774-26.499845688888893-57.87556977777777-97.07483591111111-6.384662755555555-113.78214684444444l56.26192782222222 0.17476266666666665a86.59490133333334 86.59490133333334 0 0 0-5.633183288888889 30.758229333333333c0 46.24220160000001 36.024411022222225 83.68801564444445 80.41995377777778 83.68801564444445 44.43632071111111 0 80.39082666666667-37.44581404444445 80.39082666666667-83.68219022222223 0-10.654697244444444-1.9223893333333333-20.84336071111111-5.394340977777777-30.22811591111111l550.2286051555554 1.8874368a85.0162119111111 85.0162119111111 0 0 0-6.023486577777778 31.690296888888888c0 46.213074488888886 36.018585599999994 83.68219022222223 80.41412835555555 83.68219022222223 44.41301902222222 0 80.41412835555555-37.46911573333333 80.41412835555555-83.68219022222223 0-11.033349688888887-2.068024888888889-21.55406222222222-5.813771377777778-31.20678684444444 0 0 77.36160711111111 1.963167288888889 83.78704782222222 15.320860444444444 2.889409422222222 5.988534044444444 14.5227776 61.930063644444445-9.652724622222223 73.6100352z m-149.2473173333333-2.021421511111111c-34.853501155555556 0-63.07767182222222-29.34265173333333-63.07767182222222-65.58260337777777 0-36.239951644444446 28.224170666666666-65.61173048888888 63.071846400000005-65.61173048888888 34.81272319999999 0 63.03106844444445 29.371778844444446 63.03106844444445 65.61173048888888 0 36.23412622222222-28.218345244444443 65.58260337777777-63.03106844444445 65.58260337777777z m-0.02912711111111111-40.79543182222222c-13.182930488888887 0-23.83762773333333-11.120731022222222-23.83762773333333-24.787171555555556 0-13.713043911111109 10.654697244444444-24.81629866666667 23.83762773333333-24.81629866666667 13.165454222222222 0 23.82597688888889 11.103254755555556 23.82597688888889 24.81629866666667 0 13.666440533333335-10.660522666666665 24.787171555555556-23.82597688888889 24.787171555555556z m-696.5457351111111 43.94698524444444c-34.84767573333333 0-63.08349724444444-29.377604266666665-63.08349724444444-65.59425422222222 0-36.222475377777776 28.23582151111111-65.59425422222222 63.08932266666667-65.59425422222222 34.80689777777778 0 63.03689386666667 29.371778844444446 63.03689386666667 65.59425422222222 0 36.21664995555556-28.22999608888889 65.59425422222222-63.04271928888888 65.59425422222222z m0-40.807082666666666c-13.177105066666666 0-23.843453155555554-11.103254755555556-23.843453155555554-24.787171555555556s10.666348088888888-24.792996977777776 23.843453155555554-24.792996977777776c13.142152533333332 0 23.849278577777778 11.109080177777777 23.849278577777778 24.792996977777776s-10.707126044444443 24.787171555555556-23.849278577777778 24.787171555555556z m358.3683242666666 132.86040462222223l-139.12855893333332-2.132104533333333c1.631118222222222 2.097152 2.6156145777777775 4.730242844444445 2.6156145777777775 7.642953955555555 0 6.9672049777777785-5.400166400000001 12.582912-12.099401955555555 12.582912h-10.800332800000001c22.398748444444443 17.592775111111113 56.623104 35.76809244444444 78.8237880888889 42.39742293333333 15.682036622222222 7.619652266666666 59.34357617777778 11.243064888888888 96.93502577777778 13.817901511111112-8.307052088888888-18.548144355555557-12.582912-54.001664000000005-16.346134755555557-74.30908586666668z m230.94886400000001 1.3398471111111112l-179.29484515555555-0.5592405333333333-7.555572622222222-0.11068302222222222c0.15146097777777776 37.0671616 4.042843022222222 58.58627128888889 9.798360177777777 73.44692337777776l9.757582222222222 2.4932807111111113s117.6269255111111 2.4292010666666664 148.18709048888888-11.476081777777777c11.30131911111111-15.02376391111111 57.72993422222222-63.78837333333333 19.107384888888888-63.78837333333333z"  horiz-adv-x="1024" />

    
    <glyph glyph-name="dizhi" unicode="&#58973;" d="M511.42333066 805.875C315.76757441 805.875 156.85391055 656.18804892 156.85391055 470.99472757c0-70.76559759 23.39630914-136.50593142 63.10413007-190.63049167 1.97715262-3.13049212 3.62478049-6.17860244 6.01383965-8.89718884L467.51405991-15.632029539999962c12.02768015-14.99340949 28.00966635-22.24297046 43.99165173-22.24297046s31.79920881 7.16717918 43.90927075 22.24297046l241.45979782 287.1814584c2.22429721 2.80096656 4.03668704 5.7666959 5.76669589 8.56766245 39.87258371 54.20694204 63.35127383 119.8648949 63.35127466 190.87763626C865.82798798 656.18804892 707.16146789 805.875 511.42333066 805.875z m0-468.83238108c-78.34468332 0-141.86072076 60.05601893-141.86072077 133.95210865 0 73.9784707 63.51603662 133.95210864 141.86072077 133.95210864 78.26230234 0 141.86072076-60.05601893 141.86071993-133.95210864-0.08238098-73.89608972-63.59841843-133.95210864-141.86071993-133.95210865z"  horiz-adv-x="1024" />

    
    <glyph glyph-name="chengshigongjiao" unicode="&#59039;" d="M881.45 594.15h-16.65V678.3c0 27.9-20.25 60.75-45 72.9 0 0-89.55 44.55-308.25 44.55s-307.8-44.55-307.8-44.55c-24.75-12.6-45-45.45-45-72.9v-84.15h-16.65c-27.9 0-50.4-22.5-50.4-50.4v-50.4c0-27.9 22.5-50.4 50.4-50.4h16.65v-344.7c0-22.05 13.95-40.5 33.75-47.7v-28.35c0-36.9 30.15-67.05 67.05-67.05s67.05 30.15 67.05 67.05v25.2H696.5v-25.2c0-36.9 30.15-67.05 67.05-67.05s67.05 30.15 67.05 67.05v28.35c19.35 6.75 33.75 25.65 33.75 47.7V442.95h16.65c27.9 0 50.4 22.5 50.4 50.4V543.75c0.45 27.9-22.5 50.4-49.95 50.4zM343.25 712.05c0 9.45 7.65 16.65 16.65 16.65h302.85c9.45 0 16.65-7.65 16.65-16.65v-33.75c0-9.45-7.65-16.65-16.65-16.65H359.9c-9.45 0-16.65 7.65-16.65 16.65v33.75zM267.65 114.89999999999998c-23.4 0-41.85 18.9-41.85 41.85s18.9 41.85 41.85 41.85c23.4 0 41.85-18.9 41.85-41.85s-18.9-41.85-41.85-41.85z m487.8 0c-23.4 0-41.85 18.9-41.85 41.85s18.9 41.85 41.85 41.85 41.85-18.9 41.85-41.85-18.9-41.85-41.85-41.85z m41.85 193.5c0-9.45-7.65-16.65-16.65-16.65H242.45c-9.45 0-16.65 7.65-16.65 16.65V577.5c0 9.45 7.65 16.65 16.65 16.65h538.2c9.45 0 16.65-7.65 16.65-16.65v-269.1z"  horiz-adv-x="1024" />

    
    <glyph glyph-name="address" unicode="&#58911;" d="M512.384 842.72c-189.248 0-343.008-153.6-343.008-342.272 0-62.112 17.024-121.76 47.488-173.376 33.952-57.504 278.592-388.8 278.592-388.8C498.688-68 505.376-72 512.416-72c7.072 0 13.536 3.968 16.96 10.272 0 0 244.672 331.424 278.528 388.832 30.496 51.68 47.52 111.36 47.52 173.344 0 188.672-154.016 342.272-343.04 342.272z m0-456.64c-63.072 0-114.336 51.488-114.336 114.336 0 63.104 51.296 114.336 114.336 114.336 63.072 0 114.336-51.264 114.336-114.336 0-62.848-51.232-114.336-114.336-114.336z m0 0"  horiz-adv-x="1024" />

    
    <glyph glyph-name="weixinzhifu" unicode="&#58901;" d="M473.8896875 265.9443749999999c-4.618125-2.31-10.06125-3.6628125000000002-15.819374999999999-3.6628125000000002-0.035625 0-0.07125 0-0.1059375 0-0.06468750000000001-0.0009375-0.148125-0.0009375-0.23249999999999998-0.0009375-12.913124999999999 0-24.2240625 6.8578125000000005-30.4903125 17.13l-2.4168749999999997 5.02875-96.3928125 202.126875c-1.0856249999999998 2.1262499999999998-1.7268750000000002 4.635-1.74 7.29375 0.001875 9.12375 7.9153125 16.6959375 17.6296875 16.6959375 3.9731250000000005 0 7.634062500000001-1.24125 10.644375-3.3525l113.803125-77.4c8.2321875-5.17125 18.2390625-8.2396875 28.963124999999998-8.2396875 6.4790624999999995 0 12.696562499999999 1.119375 18.4696875 3.17625l534.96 227.4871875c-96.05250000000001 108-254.04749999999999 178.60312499999998-432.8690625 178.60312499999998-292.62375000000003 0-529.8525000000001-188.84437499999999-529.8525000000001-421.75874999999996 0-127.1175 71.37937500000001-241.47937499999998 183.103125-318.7865625 8.9071875-6.144375 14.7721875-16.1371875 14.7721875-27.4659375 0-3.8175-0.8071875-7.2309375000000005-1.8309375-10.799999999999999l-23.896874999999998-85.0340625c-1.1475-3.9721875-2.855625-8.1309375-2.855625-12.320625 0-9.34125 7.944375-16.8825 17.658749999999998-16.8825 3.9646875 0.1453125 7.614375 1.3790625 10.6921875 3.40875l115.5253125 63.688125c8.720625 4.8103125 17.9371875 7.820625000000001 28.1475 7.820625000000001 5.3999999999999995 0 10.6134375-0.8371875 15.5475-2.203125 54.0928125-14.896875000000001 112.53093750000001-23.1825 172.9865625-23.1825 292.655625 0 529.8824999999999 188.84437499999999 529.8824999999999 421.75874999999996 0 70.573125-21.9103125 136.9865625-60.362812500000004 195.42374999999998l-613.9237499999999-338.55562499999996z"  horiz-adv-x="1235" />

    
    <glyph glyph-name="tel" unicode="&#59034;" d="M418.368 551.808l-88.416-89.92c46.048-102.208 143.68-216.032 256.96-254.304l76.416 76.192s181.184-31.616 221.92-51.392c35.296-17.12 46.976-55.072 41.44-101.888-5.92-50.304-71.84-161.248-190.624-162.464-118.784-1.216-293.696 88.256-419.008 220.288C191.744 320.384 80 487.712 97.92 629.856c17.888 142.08 141.696 167.52 172.672 169.792 31.296 2.304 56.16-6.88 75.04-30.272 24.32-30.144 72.768-217.568 72.768-217.568z"  horiz-adv-x="1024" />

    
    <glyph glyph-name="arrow-left" unicode="&#58930;" d="M420.53046875000007 738.3025716145834l-301.876171875-301.876171875c-23.576660156250007-23.576660156249996-23.57753906250001-61.79326171875-1.4210854715202004e-14-85.37255859375l301.876171875-301.876171875c23.576660156249996-23.576660156250007 61.79326171875-23.57753906250001 85.37255859375-1.4210854715202004e-14 23.576660156250007 23.576660156249996 23.57753906250001 61.79326171875 1.4210854715202004e-14 85.37255859375l-198.81650390624998 198.81650390625 578.75712890625-1.1368683772161603e-13c33.35888671874999-7.105427357601002e-15 60.375585937500006 27.01669921874999 60.37558593750002 60.3755859375s-27.01669921874999 60.375585937500006-60.3755859375 60.37558593750002l-578.75712890625 1.1368683772161603e-13 198.81650390625 198.81650390624998c11.773828125000003 11.773828124999998 17.691503906250002 27.230273437499996 17.691503906250006 42.68583984375s-5.887792968749995 30.91201171875-17.69150390625 42.68583984375c-23.576660156249996 23.576660156250007-61.79326171875 23.57753906250001-85.37255859375 1.4210854715202004e-14z"  horiz-adv-x="1000" />

    
    <glyph glyph-name="qiche" unicode="&#58891;" d="M1077.01116039 581.75390625c0 16.95033472-28.25055836 28.25055836-28.2505576 28.25055836h-90.40178615L890.55747778 756.90736597c-5.65011183 14.1252788-19.77539063 22.60044653-33.90066941 22.60044653H336.84654028c-16.95033472 0-31.07561351-8.47516774-36.72572533-22.60044654L235.14453125 610.00446462H144.74274587s-28.25055836-11.30022289-28.25055837-28.25055837c0-36.72572533 42.37583717-50.85100414 79.1015625-56.50111596l-45.20089307-98.87695312c-2.82505591-8.47516774-5.65011183-19.77539063-5.65011106-28.25055836V16.74274587000002c0-16.95033472 11.30022289-28.25055836 56.50111596-28.25055837h53.67606004c14.1252788 0 28.25055836 14.1252788 28.25055838 31.0756135l16.9503347 81.92661843h596.08677466l14.1252788-81.92661842c0-16.95033472 11.30022289-31.07561351 28.25055759-31.07561351H992.25948683c45.20089308 0 56.50111596 11.30022289 56.50111595 28.25055837V398.1252788c0 11.30022289-2.82505591 19.77539063-5.65011182 28.25055836L997.90959789 525.25279028c36.72572533 5.65011183 79.1015625 19.77539063 79.1015625 56.50111597zM370.74720972 638.25502222c0 16.95033472 11.30022289 28.25055836 28.25055836 28.25055836h395.50781249c16.95033472 0 28.25055836-11.30022289 28.25055761-28.25055837l56.50111595-113.00223192c0-31.07561351-25.42550245-28.25055836-56.50111596-28.25055837H370.74720972c-31.07561351 0-56.50111596-2.82505591-56.50111597 28.25055837l56.50111597 113.00223193z m28.25055836-395.50781251H314.24609375c-16.95033472 0-28.25055836 11.30022289-28.25055836 28.25055837v56.50111595c0 16.95033472 11.30022289 28.25055836 28.25055836 28.2505576h28.25055836c16.95033472 0 84.75167433-19.77539063 84.75167356-113.00223191h-28.25055759z m508.51004442 28.25055837c0-16.95033472-11.30022289-28.25055836-28.25055836-28.25055836h-113.00223192c0 93.2268413 67.80133962 113.00223192 84.75167432 113.00223191h28.25055759c16.95033472 0 28.25055836-11.30022289 28.25055837-28.2505576v-56.50111595z"  horiz-adv-x="1243" />

    
    <glyph glyph-name="file" unicode="&#59019;" d="M854 834H228.5c-45 0-76.50000000000001-31.5-76.50000000000001-72v-45C116 708 93.5 681 93.5 645v-638.9999999999999c0-40.49999999999999 36-72 76.50000000000001-72h207c18 0 31.5 13.499999999999998 31.5 26.999999999999996 0 18-13.499999999999998 26.999999999999996-31.5 26.999999999999996H170c-9 0-18 4.5-18 13.499999999999998V645c0 9 9 13.499999999999998 18 13.499999999999998h562.5c9 0 18-4.5 18-13.499999999999998v-445.5l-198 18c-9 0-18 0-22.5-9-4.5-4.5-9-13.499999999999998-9-22.5l18-225c0-9 9-22.5 18-26.999999999999996h9c9 0 13.499999999999998 4.5 22.5 9l161.99999999999997 157.5V204h13.499999999999998-13.499999999999998v-103.5l49.5 49.5c9 9 9 18 9 26.999999999999996V649.5c0 40.49999999999999-36 72-76.50000000000001 72H210.50000000000006v45c0 9 9 13.499999999999998 18 13.499999999999998H854c9 0 18-4.5 18-13.499999999999998v-567c0-13.499999999999998 13.499999999999998-26.999999999999996 31.5-26.999999999999996 18 0 31.5 13.499999999999998 31.5 26.999999999999996V762C930.5 802.5 899 834 854 834z m-261-805.5l-9 130.5 135-13.499999999999998-126-117.00000000000001zM233 352.5h405c18 0 31.5 13.499999999999998 31.5 26.999999999999996 0 18-13.499999999999998 26.999999999999996-31.5 26.999999999999996h-405c-13.499999999999998 4.5-26.999999999999996-9-26.999999999999996-22.5 0-18 13.499999999999998-31.5 26.999999999999996-31.5zM233 487.5h405c18 0 31.5 13.499999999999998 31.5 26.999999999999996s-13.499999999999998 26.999999999999996-31.5 26.999999999999996h-405c-13.499999999999998 4.5-26.999999999999996-9-26.999999999999996-26.999999999999996s13.499999999999998-26.999999999999996 26.999999999999996-26.999999999999996z"  horiz-adv-x="1024" />

    
    <glyph glyph-name="phone" unicode="&#59320;" d="M544-14.336000000000013h-64a32 32 0 0 0 0 64h64a32 32 0 0 0 0-64zM560 704h-96a32 32 0 0 0 0 64h96a32 32 0 0 0 0-64zM816 96h-608a32 32 0 0 0 0 64h608a32 32 0 0 0 0-64zM784-128h-544c-35.264 0-64 28.672-64 64V832c0 35.264 28.736 64 64 64h544c35.328 0 64-28.736 64-64v-896a64 64 0 0 0-64-64z m0 64v-32 32zM240 832v-896h544V832h-544z"  horiz-adv-x="1024" />

    
    <glyph glyph-name="info" unicode="&#58904;" d="M512-96c-264.6 0-480 215.39999999999998-480 480s215.39999999999998 480 480 480 480-215.39999999999998 480-480-215.39999999999998-480-480-480zM512 804C280.4 804 92 615.6 92 384s188.4-420 420-420 420 188.4 420 420-188.4 420-420 420z m45-225C557 603.6 536.6 624 512 624s-45-20.400000000000002-45-45 20.400000000000002-45 45-45 45 20.400000000000002 45 45z m-7.199999999999999-397.8V466.8C549.8000000000001 487.2 532.4 504 512 504s-37.2-16.8-37.2-37.2v-285c0-21 16.8-37.8 37.2-37.8 20.400000000000002 0 37.8 16.8 37.8 37.2z"  horiz-adv-x="1024" />

    
    <glyph glyph-name="build" unicode="&#59178;" d="M879.6875 16.3125v577.5h-315v-577.5h-52.5v787.5h-367.5v-787.5h-52.5v-52.5h840v52.5h-52.5z m-472.5 262.5h-157.5v52.5h157.5v-52.5z m0 157.5h-157.5v52.5h157.5v-52.5z m0 157.59375h-157.5v52.5h157.5v-52.5z m367.5-315.09375h-105v52.5h105v-52.5z m0 157.5h-105v52.5h105v-52.5z"  horiz-adv-x="1024" />

    
    <glyph glyph-name="building" unicode="&#58910;" d="M992 1.1368683772161603e-13l-64 0L928 576c0 89.6-51.2 128-83.2 134.4L640 774.4 640 844.8c0 12.8-6.4 19.2-12.8 25.6C620.8 876.8 608 876.8 601.6 876.8L172.8 755.2c0 0-76.8-19.2-76.8-121.6L96 1.1368683772161603e-13l-64 0C12.800000000000011 1.1368683772161603e-13 0-12.79999999999984 0-31.999999999999886S12.800000000000011-63.999999999999886 32-63.999999999999886l960 0c19.2 0 32 12.8 32 32S1011.2 1.1368683772161603e-13 992 1.1368683772161603e-13zM576 1.1368683772161603e-13L160 1.1368683772161603e-13 160 633.5999999999999c0 44.8 25.6 57.6 32 57.6l384 108.8L576 1.1368683772161603e-13zM864 1.1368683772161603e-13L640 1.1368683772161603e-13 640 710.4l185.6-64c0 0 6.4 0 6.4 0 6.4 0 32-6.4 32-70.4L864 1.1368683772161603e-13zM339.2 646.4l-64 0 0-64 64 0L339.2 646.4zM486.4 646.4l-64 0 0-64 64 0L486.4 646.4zM339.2 544l-64 0 0-64 64 0L339.2 544zM486.4 544l-64 0 0-64 64 0L486.4 544zM339.2 435.2l-64 0 0-64 64 0L339.2 435.2zM486.4 435.2l-64 0 0-64 64 0L486.4 435.2zM339.2 326.4000000000001l-64 0 0-64 64 0L339.2 326.4000000000001zM486.4 326.4000000000001l-64 0 0-64 64 0L486.4 326.4000000000001zM339.2 224.0000000000001l-64 0 0-64 64 0L339.2 224.0000000000001zM486.4 224.0000000000001l-64 0 0-64 64 0L486.4 224.0000000000001zM339.2 115.20000000000016l-64 0 0-64 64 0L339.2 115.20000000000016zM486.4 115.20000000000016l-64 0 0-64 64 0L486.4 115.20000000000016zM723.2 479.99999999999994l64 0 0 64-64 0L723.2 479.99999999999994zM723.2 371.20000000000016l64 0 0 64-64 0L723.2 371.20000000000016zM723.2 262.4000000000001l64 0 0 64-64 0L723.2 262.4000000000001zM723.2 160.0000000000001l64 0 0 64-64 0L723.2 160.0000000000001zM723.2 51.20000000000016l64 0 0 64-64 0L723.2 51.20000000000016z"  horiz-adv-x="1024" />

    
    <glyph glyph-name="dot" unicode="&#58987;" d="M318.014 384.515c0-106.972 86.718-193.69 193.69-193.69s193.69 86.718 193.69 193.69c0 106.972-86.718 193.69-193.69 193.69-106.972 0-193.69-86.718-193.69-193.69z"  horiz-adv-x="1024" />

    
    <glyph glyph-name="arrow-d-copy" unicode="&#59049;" d="M928.394548 628.0912740000001l28.721135000000004-28.712949c7.927553000000001-7.927552999999998 7.927553000000001-20.785395999999995 5.329070518200751e-15-28.721134999999997l-430.7546039999999-430.7546040000001c-7.935739999999999-7.927553000000001-20.793582-7.927553000000003-28.721134999999997-5.329070518200751e-15l-28.712949000000005 28.721134999999997c-7.935740000000003 7.927552999999998-7.935740000000002 20.785395999999995-3.552713678800501e-15 28.712949L899.6815999999999 628.0912740000001C907.6091529999999 636.027014 920.4669949999999 636.0270140000001 928.394548 628.0912740000001zM124.32658700000002 628.0912739999999l430.7464180000001-430.7546039999999c7.935740000000003-7.927552999999998 7.935740000000002-20.785395999999995 3.552713678800501e-15-28.712949l-28.712949-28.721135000000004c-7.935739999999999-7.927553000000001-20.793582-7.927553000000003-28.721134999999997-5.329070518200751e-15L66.88533999999993 570.6582139999998c-7.927553000000001 7.935739999999999-7.927553000000003 20.793582-5.329070518200751e-15 28.721134999999997l28.721134999999997 28.712949000000005C103.533005 636.027014 116.39084700000001 636.0270139999999 124.32658700000002 628.0912739999999z"  horiz-adv-x="1024" />

    
    <glyph glyph-name="comment" unicode="&#58916;" d="M973.6978775 636.7665084375001l-0.4484278125-0.4484278125a35.425777499999995 35.425777499999995 0 0 0-1.3452825-1.4349675L475.22580124999996 120.71607187500001a35.2464065625 35.2464065625 0 0 0-25.470685312500002-10.762261875v-0.1793709375H290.2045896875a35.425777499999995 35.425777499999995 0 0 0-35.3360915625 35.425777499999995V304.7507428125c0 10.493205 4.4842753125 19.9101834375 11.8384875 26.4572259375L764.9996909375001 843.760670625 765.3584328125 844.2090984375V844.2090984375l2.690565 2.5111940625a66.9053925 66.9053925 0 0 0 92.3760778125-2.5111940625h0.08968593750000001l112.73468812499999-112.73468906250001a66.9053925 66.9053925 0 0 0 0.4484278125-94.618215z m-77.129540625-199.370893125a35.425777499999995 35.425777499999995 0 0 0 70.85155499999999 0v-377.57600625000003c0-42.869674687499995-17.4886753125-81.793186875-45.7396115625-110.0441240625-28.250936250000002-28.250936250000002-67.26413437500001-45.7396115625-110.13380906249999-45.739610625000005H187.87341968750002c-42.869674687499995 0-81.8828728125 17.4886753125-110.133808125 45.739610625000005A155.4249928125 155.4249928125 0 0 0 32 59.90929406250007v562.328161875c0 42.869674687499995 17.4886753125 81.793186875 45.7396115625 110.044123125 28.250936250000002 28.250936250000002 67.26413437500001 45.7396115625 110.133808125 45.739610625000005h368.24871375a35.425777499999995 35.425777499999995 0 0 0 0-70.8515540625H187.87341968750002a84.8424946875 84.8424946875 0 0 1-60.089293125000005-24.9325725 84.8424946875 84.8424946875 0 0 1-24.9325715625-60.089293125000005v-562.3281609375c0-23.318233125 9.506664375-44.573699999999995 25.022257500000002-59.999608124999995 15.425908125-15.425908125 36.6813740625-25.022257500000002 60.089293125000005-25.022257500000002h623.5833656249999c23.318233125 0 44.663385 9.596349374999999 60.089293125000005 25.1119434375a84.75280875 84.75280875 0 0 1 25.0222584375 59.9996071875V437.3956153125zM434.957005625 180.536308125l486.00579093749997 503.13572343749996L812.8917546875 791.6533875 325.6303671875 290.49074625000003V180.536308125h109.2369534375z"  horiz-adv-x="1025" />

    
    <glyph glyph-name="order" unicode="&#58917;" d="M788.5723428125 575.6649525a44.555214375 44.555214375 0 0 0-44.555214375-44.555214375H278.4445775A44.555214375 44.555214375 0 0 0 233.889363125 575.6649525v117.767086875a44.555214375 44.555214375 0 0 0 44.555214375 44.555214375v-0.39255656250000004h97.1578471875A135.43215 135.43215 0 0 0 511.0345746875 863.998036875a135.43215 135.43215 0 0 0 135.82470656249998-126.40333968750001h97.1578471875V737.7909759375a44.555214375 44.555214375 0 0 0 44.555214375-44.555214375v-117.57080906249999z m-508.36125843750006-443.9819175a33.75989812500001 33.75989812500001 0 0 0 0 67.3235175H608.78125625a33.75989812500001 33.75989812500001 0 0 0 0-67.3235175H280.014805625z m0 127.5810103125a33.75989812500001 33.75989812500001 0 0 0 0 67.3235184375h251.82528749999997a33.75989812500001 33.75989812500001 0 0 0 0-67.3235184375H280.014805625z m0 129.15123937500002a33.75989812500001 33.75989812500001 0 0 0 0 67.3235175H742.2506215625001a33.75989812500001 33.75989812500001 0 0 0 0-67.3235175H280.014805625zM836.46429125 670.0749009375a33.75989812500001 33.75989812500001 0 0 0 0 67.3235175 147.99397218750002 147.99397218750002 0 0 0 148.3865296875-148.3865296875v-535.0551309374999a147.99397218750002 147.99397218750002 0 0 0-148.3865296875-148.3865296875H185.9974146875A147.99397218750002 147.99397218750002 0 0 0 37.610884999999996 53.95675781249997V589.01188875A147.99397218750002 147.99397218750002 0 0 0 185.9974146875 737.3984184374999a33.75989812500001 33.75989812500001 0 0 0 0-67.3235175 80.6704546875 80.6704546875 0 0 1-81.06301125-81.06301218750001v-535.0551309374999a80.6704546875 80.6704546875 0 0 1 81.06301125-81.06301218750001H836.46429125a80.6704546875 80.6704546875 0 0 1 80.86673343749999 81.06301218750001V589.01188875A80.6704546875 80.6704546875 0 0 1 836.46429125 670.0749009375z m-535.2514096875-71.641644375h420.0359428125V670.4674575h-83.81090999999999a57.5095940625 57.5095940625 0 0 0-57.705872812500004 57.705872812500004 68.3049103125 68.3049103125 0 0 1-116.9819728125 48.2845059375 68.3049103125 68.3049103125 0 0 1-20.020404375000002-49.462176562500005 57.5095940625 57.5095940625 0 0 0-57.705872812500004-56.7244809375V670.66373625h-83.81090999999999v-72.03420187500001z"  horiz-adv-x="1024" />

    
    <glyph glyph-name="history" unicode="&#58918;" d="M177.70338968749996 787.5847078125h94.0495903125V835.869095625C271.75298 851.4040725 287.0080475 864 305.62202843750003 864s33.869049375-12.5959275 33.869049375-27.9909496875v-48.424342499999995H634.0958224999999V835.869095625C634.0958224999999 851.4040725 649.4908446874999 864 667.9648709375 864s33.869049375-12.5959275 33.869049375-27.9909496875v-48.424342499999995h94.0495903125c38.7674653125 0 74.17601625-16.79457 99.647780625-43.945790625 25.6117190625-27.0112659375 41.4266053125-64.37918437500001 41.4266053125-105.2459709375v-55.002215625a36.1083253125 36.1083253125 0 0 0 0-4.478551875V294.3841762500001c31.6297734375-41.286650625 50.52366375-93.7696809375 50.5236646875-150.7312640625 0-66.058640625-25.331809687499998-125.95927312500001-66.3385509375-169.345245-41.1466959375-43.385971875-97.82836875000001-70.257283125-160.38814125-70.257283125-50.3837090625 0-97.12859531250001 17.4943434375-134.916376875 47.164749375H177.84334437500002a137.015698125 137.015698125 0 0 0-99.7877353125 43.945791562500006 152.9705390625 152.9705390625 0 0 0-41.286650625 105.1060153125v478.6452384375a36.1083253125 36.1083253125 0 0 0 0 4.478551875v55.002215625c0 41.00674125 15.81488625 78.2347040625 41.286650625 105.2459709375A137.015698125 137.015698125 0 0 0 177.84334437500002 787.5847078125z m559.399126875-549.742250625c0 18.7539365625 14.275384687499999 33.869049375 32.049637499999996 33.869049375s32.189592187500004-15.1151128125 32.189592187500004-33.869049375v-97.2685490625h59.3408128125c17.634298125 0 32.189592187500004-15.1151128125 32.189592187500004-33.869049375a33.0293203125 33.0293203125 0 0 0-32.189592187500004-33.7290946875h-91.530405a33.0293203125 33.0293203125 0 0 0-32.189592187500004 33.7290946875v131.13759843749997z m138.555200625 27.7110403125h-2.7990946875000002v2.9390503125a157.30913625 157.30913625 0 0 1-111.96379875 47.3047040625c-45.0654290625 0-85.6523053125-19.173800625000002-115.0428028125-50.3837090625-29.3904975-31.06995375-47.584614375-74.17601625-47.584614375-121.760630625 0-47.584614375 18.194116875-90.690676875 47.584614375-121.760630625 29.3904975-31.06995375 69.97737375-50.3837090625 114.902848125-50.3837090625 44.925474375 0 85.6523053125 19.3137553125 114.902848125 50.3837090625 29.3904975 31.06995375 47.584614375 74.17601625 47.584614375 121.760630625 0 47.584614375-18.194116875 90.690676875-47.584614375 121.760630625z m-2.7990946875000002 86.492034375V547.2824053125H100.72827781249998v-447.01546499999995c0-22.392759375 8.677194375000001-42.826153125 22.67266875-57.661356562499996 13.995474375-14.69524875 33.169275-23.7923071875 54.302443125-23.79230625h389.6340178125a248.4196771875 248.4196771875 0 0 0-33.3092296875 124.8396346875c0 66.058640625 25.471764375 125.95927312500001 66.47850468749999 169.345245 41.00674125 43.385971875 97.6884140625 70.39723781250001 160.2481865625 70.39723875 40.726831875 0 78.9344775-11.4762890625 111.96379875-31.3498640625z m-656.3877684375001-121.48072124999999a33.0293203125 33.0293203125 0 0 0-32.18959125 33.869049375c0 18.613981875 14.5552940625 33.7290946875 32.18959125 33.72909375h190.3384575c17.634298125 0 32.049637499999996-15.1151128125 32.049637499999996-33.72909375a33.0293203125 33.0293203125 0 0 0-32.189592187500004-33.869049375H216.4708540625z m0 124.83963562499999a33.0293203125 33.0293203125 0 0 0-32.18959125 33.72909375c0 18.7539365625 14.5552940625 33.869049375 32.18959125 33.869049375h246.60026624999998c17.7742528125 0 32.189592187500004-15.1151128125 32.189592187500004-33.869049375a33.0293203125 33.0293203125 0 0 0-32.189592187500004-33.72909375H216.4708540625zM701.8339203124999 719.84661v-41.00674125c0-15.534976875-15.255067500000001-27.9909496875-33.869049375-27.9909496875s-33.869049375 12.4559728125-33.8690484375 27.9909496875V719.84661H339.49107781249995v-41.00674125c0-15.534976875-15.255067500000001-27.9909496875-33.869049375-27.9909496875s-33.869049375 12.4559728125-33.8690484375 27.9909496875V719.84661H177.84334437500002a74.5958803125 74.5958803125 0 0 1-54.3024421875-23.7923071875 83.83289437500001 83.83289437500001 0 0 1-22.672669687499997-57.801311250000005v-23.5123978125h772.1303446874999v23.5123978125a83.83289437500001 83.83289437500001 0 0 1-22.672669687499997 57.661356562499996 74.5958803125 74.5958803125 0 0 1-54.3024421875 23.7923071875h-94.0495903125z"  horiz-adv-x="1024" />

    
    <glyph glyph-name="adduser" unicode="&#58919;" d="M730.239216875 235.28864906249999a36.6549075 36.6549075 0 0 0-22.3116834375-69.72400875l-33.8659471875 10.95663a230.08923000000001 230.08923000000001 0 0 0-62.55239718749999 31.076986875000003 36.45569625 36.45569625 0 0 0-15.339281249999999 21.5148365625 130.0850803125 130.0850803125 0 0 0 0 78.090890625c3.386595 13.546379062500002 14.54243625 30.678564375 29.28408375 53.5878815625 29.483295000000002 45.221000625 76.69641 117.73396968750001 76.69641 178.69267406249998 0 71.11848937500001-23.307740625 134.46773156249998-60.361070625 179.887944375-35.8580615625 44.2249425-84.66486843749999 71.317700625-137.4559040625 71.317700625-52.3926121875 0-99.60572718750001-25.49906625-133.670885625-67.7318953125-35.459639062499996-43.82652-57.1736878125-105.58207125-57.1736878125-176.8997709375 0-79.6845815625 66.7358371875-174.7084453125 88.2506746875-205.38700968749998 2.3905378125000003-3.386595 4.3826521875-5.9763440625 5.9763431250000005-8.765304375a97.015978125 97.015978125 0 0 0 0-107.374974375 36.45569625 36.45569625 0 0 0-10.75741875-10.558206562499999c-11.9526871875-7.9684584375-23.905374375-13.944801562499999-35.8580615625-18.9250884375a466.1548040625 466.1548040625 0 0 0-30.877775624999998-11.15584125l-173.11475437500002-73.11060375a73.309815 73.309815 0 0 1-37.8501759375-27.291969375 66.9350484375 66.9350484375 0 0 1-13.3471678125-39.44386875v-20.120356875a44.8225771875 44.8225771875 0 0 1 43.82652-43.82652h569.3463375a36.6549075 36.6549075 0 0 0 0-73.309815H149.53782593750003A118.929238125 118.929238125 0 0 0 32.60070218750002 23.925295312499884v19.921145625c0 30.877775624999998 10.5582075 59.5642246875 27.690391875 82.87196531250001a147.416476875 147.416476875 0 0 0 69.32558625 51.7949784375l173.313965625 73.11060375a150.4046484375 150.4046484375 0 0 1 46.615480312500004 18.9250884375 24.9014315625 24.9014315625 0 0 1-2.7889603125 20.917202812499998l-4.7810746875 6.9724003125c-24.9014315625 35.2604278125-101.59784156250001 144.8267278125-101.59784156250001 247.61983875h-0.19921124999999998c0 88.4498859375 27.8896040625 166.5407765625 73.7082375 223.11682875C361.698025625 828.3411496875 429.0314965625 864 504.73184937499997 864s144.428304375-37.4517534375 194.0319571875-98.41045874999999a358.5806184375 358.5806184375 0 0 0 76.89562125-226.10500125c0-82.274330625-54.58393875-166.142353125-88.6490971875-218.5349653125a402.8055609375 402.8055609375 0 0 1-19.5227221875-31.4754103125 58.76737875 58.76737875 0 0 1-3.386595-28.4872378125 156.1817803125 156.1817803125 0 0 1 32.4714675-14.741647500000001l33.8659471875-10.95663z m83.6688103125 1.593691875a36.45569625 36.45569625 0 0 0 72.9113925 0v-110.960780625h110.960780625a36.45569625 36.45569625 0 0 0 0-72.7121803125h-110.960780625v-111.15999187499999a36.45569625 36.45569625 0 0 0-72.9113925 0V53.20938000000001h-110.9607796875a36.45569625 36.45569625 0 0 0 0 72.7121803125h110.9607796875v110.960780625z"  horiz-adv-x="1068" />

    
    <glyph glyph-name="ctjk" unicode="&#58920;" d="M902.9274715624999 331.43833874999996a43.7120803125 43.7120803125 0 0 0 86.48411531250001-11.656554374999999 478.7647809375 478.7647809375 0 0 0-159.619595625-297.05413500000003 478.7647809375 478.7647809375 0 0 0-315.7610240625-118.727649375 478.38876374999995 478.38876374999995 0 0 0-339.3561478125 140.5366875A478.4827678125 478.4827678125 0 0 0 34.138131875 383.8928353125a478.4827678125 478.4827678125 0 0 0 140.5366875 339.35614687500004 479.4228121875 479.4228121875 0 0 0 744.891444375-83.00594906250001 43.7120803125 43.7120803125 0 0 0-73.8875165625-46.6262184375A391.90464843750004 391.90464843750004 0 0 1 514.0309671875 776.1735009375a392.374670625 392.374670625 0 0 1-371.31766875-265.56263625c138.186575625 35.3456821875 633.8721618750001 34.3116328125 751.0017346875001-3.1961521875 51.232438125-16.356778125 59.128813125-64.86308625 6.5803134375-91.7483653125-52.6425046875-26.8852790625-214.5182071875-81.7838915625-267.34872187499997-95.414540625-42.5840259375-189.8890359375-73.0414753125-290.94384375-97.95266062500001-328.07561062499997a391.622634375 391.622634375 0 0 1 367.93350749999996 339.2621428125zM123.16036812499999 416.700395625a391.05860812500003 391.05860812500003 0 0 1 113.5574034375-310.2147609375 391.05860812500003 391.05860812500003 0 0 1 255.880175625-114.30943875c-27.073288125 44.3701115625-51.7024603125 171.46415906250002-89.02223625 325.2554765625a64.0170459375 64.0170459375 0 0 0-8.4604021875-0.0940040625C368.7940559375 319.49977125 180.69110562499998 387.18299156250004 125.04045687500002 415.66634718750004a111.4893046875 111.4893046875 0 0 0-1.88008875 0.940044375z"  horiz-adv-x="1024" />

    
    <glyph glyph-name="sign" unicode="&#58921;" d="M646.3825503125 654.2416321875a400.872729375 400.872729375 0 0 0-10.346907187500001 59.844271875 520.14180375 520.14180375 0 0 0-1.8176999999999999 66.6956015625V780.9213290625a77.32215562500001 77.32215562500001 0 0 1-0.6991153125 11.8849603125 35.3752359375 35.3752359375 0 0 0-1.1185846875-0.2796459375c-16.7787675-3.9150459375-35.654881875-9.228322499999999-54.5309953125-14.6814215625l-15.380536875-4.194691875-358.366516875-100.95225375000001-92.982339375-26.1469134375-1.9575224999999998-0.559291875-1.6778765625-0.559291875a36.07435125000001 36.07435125000001 0 0 0-4.194691875-0.9787621875000001c0-0.419469375 0.559291875-1.1185846875 0.4194684375-3.6353990625000003a461.276293125 461.276293125 0 0 1 6.292038750000001-110.4602221875c6.43186125-35.9345278125 15.9398296875-70.890294375 27.9646125-104.86729875 12.304429687499999-34.536297187500004 26.985851250000003-68.233655625 43.3451503125-101.2318996875 23.4902746875-47.4000196875 50.7557728125-91.72393124999999 82.21596281250001-132.8319121875 31.460189999999997-40.968158437499994 67.115071875-78.86020875 106.8248221875-113.2566834375 23.07080625-19.994698125 46.9805503125-38.1716971875 72.0088790625-53.412410625a361.86209343750005 361.86209343750005 0 0 1 139.12394999999998-49.916835v0.1398234375c1.1185846875-0.1398234375 2.79646125 0 4.8938071875 0.2796459375h0.9787612499999999a100.672606875 100.672606875 0 0 1 10.4867296875 2.5168153125c25.168152187500002 6.991153125 50.3363034375 15.66018375 75.504455625 25.3079746875 26.2867359375 10.0672603125 50.89559625 20.5539909375 74.94516375 31.320366562500002 54.251349375 24.18939 108.36287625 50.3363034375 162.19475531249998 77.461978125 54.251349375 27.405320624999998 107.2442915625 55.509756562499994 159.398295 83.893839375v0.1398234375l9.787614375 5.453099999999999a124.4425284375 124.4425284375 0 0 1 7.550445937499999 4.753983750000001 389.6868834375 389.6868834375 0 0 1-21.39292875 10.20708375 2519.7514640625 2519.7514640625 0 0 0-133.2513815625 69.7717096875 508.11702 508.11702 0 0 0-70.6106484375 45.30267375 35.3752359375 35.3752359375 0 0 0 46.840726875 52.99294125c8.1097378125-7.2707990625 31.460189999999997-21.39292875 58.7256871875-36.9132890625a2420.75673375 2420.75673375 0 0 1 127.378813125-66.5557790625c8.38938375-3.9150459375 16.7787675-7.6902684375 26.7062053125-13.143368437500001a69.2124178125 69.2124178125 0 0 0 36.3539971875-57.886749375 70.7504709375 70.7504709375 0 0 0-29.9221359375-61.52214843750001 187.642554375 187.642554375 0 0 0-24.0495675-14.5415990625h-0.1398225a5503.4358609374995 5503.4358609374995 0 0 0-161.49564093749999-85.29207c-54.1115259375-27.265498125-109.0619915625-53.5522340625-165.2708634375-78.7203853125-26.566382812500002-11.8849603125-52.85311875-23.210628749999998-78.300916875-32.9982440625a895.566735 895.566735 0 0 0-82.076139375-27.1256746875 177.99476249999998 177.99476249999998 0 0 0-19.7150521875-4.4743378125 86.9699465625 86.9699465625 0 0 0-26.286736875000003-0.2796459375 554.817924375 554.817924375 0 0 0-70.6106475 15.939828749999998 432.472741875 432.472741875 0 0 0-94.3805690625 43.48497375 608.5099809375 608.5099809375 0 0 0-81.6566709375 60.1239178125 830.9684784375 830.9684784375 0 0 0-116.75225999999999 124.02306000000002 876.690620625 876.690620625 0 0 0-89.486761875 144.4372265625 997.7773959374999 997.7773959374999 0 0 0-46.56108 109.061990625 728.4781715624999 728.4781715624999 0 0 0-31.1805440625 116.0531446875 534.8232253125 534.8232253125 0 0 0-6.991153125 127.2389896875 73.5469321875 73.5469321875 0 0 0 14.6814215625 43.205326875 72.707994375 72.707994375 0 0 0 38.451343125 24.608859374999998l2.9362846875 0.83893875 2.79646125 0.83893875 92.9823384375 26.1469134375L543.4727740625 841.6045396874999l14.9610675 4.334515312500001A1143.6128531250001 1143.6128531250001 0 0 0 619.256875625 862.158530625l0.8389378125 0.1398225h0.419469375a70.890294375 70.890294375 0 0 0 48.9380728125-6.8513296875 65.71684125 65.71684125 0 0 0 32.718597187499995-45.023027812500004l0.279646875-0.8389378125v-0.419469375a121.08677437499999 121.08677437499999 0 0 0 2.3769918750000003-30.3416053125V778.6841596875a451.20903281249997 451.20903281249997 0 0 1 3.4955765625-73.1274628125c22.0920440625 15.380536875 45.023026875 29.223020625 67.5345403125 43.904442187499995 0.559291875 0.419469375 1.398230625 0.559291875 2.79646125 1.1185846875-7.2707990625-33.5575359375-15.66018375-66.6956025-13.98230625-102.76995281250001l2.79646125 4.753983750000001c20.134521562499998 39.5699278125 45.44249625 75.7841015625 70.890294375 111.9982753125a79.27967812499999 79.27967812499999 0 0 0 41.3876278125 31.600013437500003c27.82479 8.808853125 55.9292259375 16.0796521875 84.87260062499999 19.43540625 25.3079746875 2.79646125 50.3363034375 2.237169375 74.9451628125-5.5929225 12.584075625-4.0548684375 13.423014375000001-6.2920378125 4.194691875-15.380537812499998a378.780684375 378.780684375 0 0 1-52.2938259375-62.5009096875c-1.8176999999999999-2.79646125-2.237169375-6.2920378125-3.3557540625-9.5079684375l1.8176999999999999-0.83893875 3.9150459375 1.9575224999999998 76.483216875 41.527451250000006a66.9752484375 66.9752484375 0 0 0 9.368145 4.0548684375c5.173453125 1.8176999999999999 9.0884990625 0.2796459375 11.1858459375-4.8938071875a146.115103125 146.115103125 0 0 0 11.185845-55.5097575v-0.1398225c0-15.1008909375-2.237169375-30.061959375-6.5716846874999995-45.1628503125-9.9274378125-34.536297187500004-29.9221359375-63.200025937499994-51.874356562500004-91.0248159375a58.44604125 58.44604125 0 0 0-34.955766562499996-22.0920440625 321.59305125 321.59305125 0 0 1-83.05490156249999-31.739835937500004c-1.5380540624999999-0.83893875-2.5168153125-3.215930625-3.6353990625000003-4.7539846875 1.9575224999999998-0.6991153125 3.9150459375-1.9575224999999998 5.8725684375-1.9575224999999998 14.5415990625-0.2796459375 29.083197187499998-0.1398234375 43.48497375-0.419469375 2.79646125 0 5.5929225-0.6991153125 8.2495603125-1.1185846875l0.6991153125-2.0973459375c-17.4778828125-14.261953125-34.39647375-29.223020625-52.433649375-42.5062115625-62.361087187500004-46.1416115625-128.357574375-86.9699465625-195.75229125-125.14164375-75.08498625-42.3663890625-152.407141875-80.118616875-230.1487659375-117.4513753125a108.50269875 108.50269875 0 0 1-34.676120625-25.7274440625c-13.423014375000001-15.1008909375-27.5451440625-29.642490000000002-41.5274503125-44.3239115625a44.044265625 44.044265625 0 0 0-8.669030625000001-7.2707990625 18.3168215625 18.3168215625 0 0 0-23.210628749999998 2.3769918750000003c-6.991153125 6.991153125-8.24956125 15.9398296875-3.215930625 24.18939a53.831880000000005 53.831880000000005 0 0 0 6.9911540625 9.0884990625c77.8814475 82.076139375 155.203603125 164.8513940625 233.92398843750001 246.088595625a1391.51914875 1391.51914875 0 0 0 148.3522725 133.5310275c29.083197187499998 22.3716909375 59.284980000000004 43.205326875 88.92747 64.73808 2.0973459375 1.398230625 3.6353999999999997 3.7752225 5.313275624999999 5.7327449999999995l-1.398230625 1.6778775c-2.237169375-0.419469375-4.6141612499999995-0.559291875-6.7115071875000005-1.398230625-11.605314374999999-4.7539846875-23.4902746875-9.228322499999999-34.955765625-14.6814225-64.8779025-31.040720625-121.92571312499999-73.8265790625-177.01600125000002-119.54872125-65.71684125-54.5309953125-125.56111312499999-114.93455999999999-182.7487471875-178.134585-1.398230625-1.398230625-2.237169375-3.4955765625-3.355753125-5.173453125a344.1045646875 344.1045646875 0 0 1-1.8176999999999999 1.398230625c0.2796459375 2.237169375 0.419469375 4.6141612499999995 0.9787612499999999 6.8513296875 8.24956125 39.010635 19.57522875 76.90268625 33.977005312500005 114.23544468749999 23.4902746875 60.683210625 86.13100874999999 157.0213021875 145.27616531249998 217.28504437499998z"  horiz-adv-x="1203" />

    
    <glyph glyph-name="arrow-l-copy" unicode="&#59321;" d="M756.09127399-32.394547999999986l-28.71294899-28.721135c-7.927553-7.927553-20.78539601-7.927553-28.721135 0l-430.754604 430.75460399c-7.927553 7.93574-7.927553 20.793582 0 28.72113502l28.721135 28.71294899c7.927553 7.93574 20.785396 7.93574 28.712949 0L756.091274-3.681600010000011C764.027014-11.609152999999992 764.027014-24.466994999999997 756.09127399-32.394547999999986zM756.091274 771.673413l-430.754604-430.746418c-7.927553-7.93574-20.785396-7.93574-28.712949 0l-28.721135 28.71294899c-7.927553 7.93574-7.927553 20.793582 0 28.72113502L698.658214 829.11466c7.93574 7.927553 20.793582 7.927553 28.721135 0l28.712949-28.721135C764.027014 792.466995 764.027014 779.609153 756.091274 771.673413z"  horiz-adv-x="1024" />

    


  </font>
</defs>
</svg>
